<svg clip-rule="evenodd" fill-rule="evenodd" height="50" image-rendering="optimizeQuality" shape-rendering="geometricPrecision" text-rendering="geometricPrecision" viewBox="0 15 210 160" width="50" xmlns="http://www.w3.org/2000/svg"><path d="m-.5-.5h200v200c-66.667 0-133.3333 0-200 0 0-66.667 0-133.3333 0-200z" fill="#c9b884"/><path d="m89.5 9.5c24.919-1.35749 47.252 5.4758 67 20.5-10.523 8.6901-21.189 17.1901-32 25.5-26.778-12.6763-49.278-7.343-67.5 16-8.9366 13.6344-10.7699 28.1344-5.5 43.5-9.6879 8.686-19.6879 17.019-30 25 12.3604-2.674 24.6937-5.841 37-9.5 18.6415 20.719 40.6415 25.219 66 13.5 13.946-8.789 22.613-21.289 26-37.5 12.837-4.099 25.837-7.4323 39-10-2.131 49.294-27.131 79.794-75 91.5-41.7185 4.89-73.2185-10.61-94.5-46.5-19.211072-42.6431-11.71107-79.8098 22.5-111.5 13.9054-11.0187 29.5721-17.852 47-20.5z"/></svg>