<svg height="50" viewBox="0 15 50 20" width="50" xmlns="http://www.w3.org/2000/svg"><g fill="#6e0000" transform="translate(-3.199998 -2.963478)"><path d="m14.5 48.1c.5.7 1.1 1.2 1.8 1.6 3.5 2 9.5.1 18.6-5.2 9.2-5.3 13.8-9.5 13.9-13.5 0-.6-.1-1.1-.3-1.7-5.8 7.9-25.2 17.7-34 18.8m.8-42c7.9 1.4 27.8 12.4 33.2 19.7.2-.5.2-1.1.3-1.6 0-4-4.5-8.3-13.8-13.6-9.1-5.2-15-7.2-18.6-5.2-.4.2-.7.4-1.1.7zm-6.3.7c1.2-.7 2.7-1 4.3-.9.7-.9 1.4-1.5 2.3-2 4.1-2.3 10.6-.3 20.2 5.3 9.8 5.7 14.7 10.3 14.7 15.1 0 1.1-.3 2.2-.8 3.3.6 1.1.8 2.3.8 3.4 0 4.7-5 9.3-14.7 14.9-9.7 5.6-16.1 7.6-20.3 5.2-1.1-.6-2.1-1.6-2.9-2.9-1.4 0-2.6-.4-3.7-1-4.1-2.3-5.7-8.8-5.7-20.2s1.7-17.9 5.8-20.2zm3.3.7c-.9.1-1.8.3-2.5.7-3.5 2-4.9 8-4.9 18.8 0 10.7 1.3 16.8 4.9 18.8.6.3 1.3.6 2.1.7-3.8-7.6-3.8-31.8.4-39zm4.1 4.6c-6.8 3.8-6.8 27-.1 30.8 7 4 25.9-9.8 25.9-15.8.1-7.8-19.2-18.7-25.8-15z"/><path clip-rule="evenodd" d="m29.3 28.8c-.9.5-1.9 1.1-2.8 1.6s-1.9 1.1-2.8 1.6c-2.9 1.7-2.8 1.8-2.8-1.6 0-1.1 0-2.1 0-3.2s0-2.1 0-3.2c0-3.3-.2-3.3 2.8-1.6.9.5 1.9 1.1 2.8 1.6s1.9 1.1 2.8 1.6c2.9 1.7 2.9 1.6 0 3.2" fill-rule="evenodd"/><path d="m180.8 26.8h9.4c-.1-1.7-.6-2.9-1.3-3.7-.8-.9-1.9-1.3-3.4-1.3-1.4 0-2.5.4-3.3 1.3-.9.9-1.3 2.2-1.4 3.7m11.1 7.2h4.6c-.7 2.6-2 4.5-3.9 5.9s-4.3 2.1-7.2 2.1c-3.5 0-6.2-1.1-8.2-3.4-2-2.2-2.9-5.4-2.9-9.5 0-3.9 1-7 2.9-9.2 2-2.3 4.7-3.4 8.2-3.4 3.7 0 6.5 1.1 8.6 3.3 2 2.3 2.9 5.4 2.9 9.5v.6.4c0 .3 0 .5-.1.6h-15.9c.1 1.9.5 3.3 1.4 4.2.8 1 2 1.5 3.6 1.5 1 0 1.9-.2 2.7-.6.2-.1.4-.2.5-.3.2-.2.3-.3.5-.5.1-.2.3-.4.7-.7.3-.3.9-.5 1.6-.5zm-26.8-24.1h3.3c.9 0 1.6.3 2.2.9s.9 1.3.9 2.2v28.7h-6.4zm-10 19.3c0-2.2-.5-3.9-1.4-5.2s-2.2-1.9-3.8-1.9c-1.7 0-3 .6-4 1.8-.9 1.3-1.4 3-1.4 5.3 0 2.6.4 4.5 1.3 5.6.9 1.3 2.2 1.9 3.9 1.9s3-.6 4-1.9c.9-1.3 1.4-3.2 1.4-5.6zm-10.5-16.3v7.4c.7-1.2 1.7-2.1 2.9-2.9 1.1-.6 2.5-.9 4.1-.9 2.9 0 5.3 1.2 7.1 3.6s2.8 5.5 2.8 9.3-.9 6.9-2.8 9.3c-.9 1.2-2.2 2-3.7 2.5-1.6.5-3.1.8-4.7.8-7.1 0-12-3.7-12-11.1v-21.1h3.1c.9 0 1.6.3 2.2.9.7.6 1 1.4 1 2.2zm-25.3 28.7h-6.3v-14.4-1.3c0-1.5-.4-2.5-1.3-3.2s-1.9-1-3-1-2.1.3-2.9 1c-.9.7-1.3 1.8-1.3 3.2v15.7h-6.4v-14.4c0-4.2 1.1-7 3.3-8.4s4.6-2.2 7.2-2.3c1.4 0 2.8.2 4.1.5 1.4.3 2.6.9 3.7 1.8.9-.8 2-1.4 3.3-1.7s2.6-.5 3.9-.6c2.7 0 5.2.7 7.5 2.1s3.4 4.3 3.4 8.6v14.4h-3.2c-.9 0-1.7-.3-2.3-.9s-.9-1.3-.9-2.3v-12.5c0-1.5-.4-2.5-1.3-3.2s-1.9-1-3-1-2.1.3-3 1-1.3 1.8-1.3 3.2v1.3 14.4zm-24.6-24.5v14.4c0 4.4-1.1 7.2-3.4 8.6s-4.8 2-7.5 2c-2.6-.1-5.1-.9-7.2-2.2-2.2-1.4-3.3-4.2-3.3-8.4v-14.4h6.4v15.7c0 1.5.4 2.5 1.3 3.2s1.8 1 2.9 1 2.1-.3 3-1 1.3-1.8 1.3-3.2v-12.6c0-.9.3-1.6.9-2.2s1.3-.9 2.3-.9zm-38.1 24.5v-11.9c0-2.4.4-4.4 1.1-6s1.7-2.9 2.9-3.9c1.2-.9 2.5-1.6 4.1-2s3.2-.6 4.8-.6h.5.5v6.5h-2.1c-1.8 0-3.1.4-4 1.3s-1.3 2.2-1.3 4.1v12.6h-6.5z"/></g></svg>