<svg height="50" viewBox="0 0 30 30" width="50" xmlns="http://www.w3.org/2000/svg"><path d="m15 4c-4.186 0-9.6191406 1.0488281-9.6191406 1.0488281l-.0136719.015625c-1.9065243.3049114-3.3671875 1.9431714-3.3671875 3.9355469v6 .001953 5.998047.001953a4 4 0 0 0 3.3769531 3.943359l.0039063.00586s5.4331406 1.050781 9.6191406 1.050781 9.619141-1.050781 9.619141-1.050781l.001953-.001953a4 4 0 0 0 3.378906-3.947266v-.001953-5.998047-.001953-6a4 4 0 0 0 -3.376953-3.9453125l-.003906-.0058594s-5.433141-1.0488281-9.619141-1.0488281zm-3 6.398438 8 4.601562-8 4.601562z"/></svg>